<svg width="4432" height="1912" xmlns="http://www.w3.org/2000/svg" xmlns:xlink="http://www.w3.org/1999/xlink" overflow="hidden"><defs><clipPath id="clip0"><rect x="815" y="957" width="4432" height="1912"/></clipPath><clipPath id="clip1"><rect x="820" y="962" width="4423" height="1902"/></clipPath><clipPath id="clip2"><rect x="820" y="962" width="4423" height="1902"/></clipPath><clipPath id="clip3"><rect x="981" y="1146" width="4144" height="1181"/></clipPath><clipPath id="clip4"><rect x="981" y="1146" width="4144" height="1181"/></clipPath><clipPath id="clip5"><rect x="981" y="1146" width="4144" height="1181"/></clipPath><clipPath id="clip6"><rect x="820" y="962" width="4423" height="1902"/></clipPath><clipPath id="clip7"><rect x="820" y="962" width="4423" height="1902"/></clipPath><clipPath id="clip8"><rect x="820" y="962" width="4423" height="1902"/></clipPath><clipPath id="clip9"><rect x="820" y="962" width="4423" height="1902"/></clipPath><clipPath id="clip10"><rect x="820" y="962" width="4423" height="1902"/></clipPath><clipPath id="clip11"><rect x="820" y="962" width="4423" height="1902"/></clipPath><clipPath id="clip12"><rect x="820" y="962" width="4423" height="1902"/></clipPath><clipPath id="clip13"><rect x="820" y="962" width="4423" height="1902"/></clipPath><clipPath id="clip14"><rect x="820" y="962" width="4423" height="1902"/></clipPath><clipPath id="clip15"><rect x="820" y="962" width="4423" height="1902"/></clipPath><clipPath id="clip16"><rect x="820" y="962" width="4423" height="1902"/></clipPath><clipPath id="clip17"><rect x="820" y="962" width="4423" height="1902"/></clipPath><clipPath id="clip18"><rect x="820" y="962" width="4423" height="1902"/></clipPath><clipPath id="clip19"><rect x="820" y="962" width="4423" height="1902"/></clipPath><clipPath id="clip20"><rect x="820" y="962" width="4423" height="1902"/></clipPath><clipPath id="clip21"><rect x="820" y="962" width="4423" height="1902"/></clipPath><clipPath id="clip22"><rect x="820" y="962" width="4423" height="1902"/></clipPath><clipPath id="clip23"><rect x="820" y="962" width="4423" height="1902"/></clipPath><clipPath id="clip24"><rect x="820" y="962" width="4423" height="1902"/></clipPath><clipPath id="clip25"><rect x="820" y="962" width="4423" height="1902"/></clipPath><clipPath id="clip26"><rect x="820" y="962" width="4423" height="1902"/></clipPath><clipPath id="clip27"><rect x="820" y="962" width="4423" height="1902"/></clipPath><clipPath id="clip28"><rect x="820" y="962" width="4423" height="1902"/></clipPath><clipPath id="clip29"><rect x="820" y="962" width="4423" height="1902"/></clipPath><clipPath id="clip30"><rect x="820" y="962" width="4423" height="1902"/></clipPath><clipPath id="clip31"><rect x="820" y="962" width="4423" height="1902"/></clipPath></defs><g clip-path="url(#clip0)" transform="translate(-815 -957)"><rect x="820" y="963" width="4423" height="1902" fill="#FFFFFF" fill-opacity="1"/><g clip-path="url(#clip1)"><path d="M981.5 2127.57 5121.5 2127.57M981.5 1931.56 5121.5 1931.56M981.5 1735.56 5121.5 1735.56M981.5 1538.55 5121.5 1538.55M981.5 1342.54 5121.5 1342.54M981.5 1146.5 5121.5 1146.5" stroke="#D9D9D9" stroke-width="3.4375" stroke-linecap="butt" stroke-linejoin="round" stroke-miterlimit="10" stroke-opacity="1" fill="none" fill-rule="nonzero"/></g><g clip-path="url(#clip2)"><path d="M981.5 2323.5 5121.5 2323.5" stroke="#D9D9D9" stroke-width="3.4375" stroke-linecap="butt" stroke-linejoin="round" stroke-miterlimit="10" stroke-opacity="1" fill="none" fill-rule="evenodd"/></g><g clip-path="url(#clip3)"><path d="M1154 1580 1499.05 1611.05 1844.06 1784.06 2189.07 1792.06 2534.08 1833.06 2879.09 1882.06 3224.11 2127.07 3569.12 2056.07 3914.13 1670.05 4259.14 1670.05 4604.15 2324 4949 2201.07" stroke="#5B9BD5" stroke-width="10.3125" stroke-linecap="round" stroke-linejoin="round" stroke-miterlimit="10" stroke-opacity="1" fill="none" fill-rule="nonzero"/></g><g clip-path="url(#clip4)"><path d="M1154 2086 1499.05 2055.07 1844.06 1883.06 2189.07 1874.06 2534.08 1833.06 2879.09 1784.06 3224.11 1539.05 3569.12 1610.05 3914.13 1997.07 4259.14 1997.07 4604.15 1343 4949 1465.05" stroke="#70AD47" stroke-width="10.3125" stroke-linecap="round" stroke-linejoin="round" stroke-miterlimit="10" stroke-opacity="1" fill="none" fill-rule="nonzero"/></g><g clip-path="url(#clip5)"><path d="M1154 2324 1499.05 2324 1844.06 2324 2189.07 2324 2534.08 2324 2879.09 2324 3224.11 2324 3569.12 2324 3914.13 2324 4259.14 2324 4604.15 2324 4949 2324" stroke="#264478" stroke-width="10.3125" stroke-linecap="round" stroke-linejoin="round" stroke-miterlimit="10" stroke-opacity="1" fill="none" fill-rule="nonzero"/></g><g clip-path="url(#clip6)"><text fill="#595959" fill-opacity="1" font-family="Calibri,Calibri_MSFontService,sans-serif" font-style="normal" font-variant="normal" font-weight="400" font-stretch="normal" font-size="41" text-anchor="start" direction="ltr" writing-mode="lr-tb" unicode-bidi="normal" text-decoration="none" transform="matrix(1 0 0 1 892.354 2334)">0%</text></g><g clip-path="url(#clip7)"><text fill="#595959" fill-opacity="1" font-family="Calibri,Calibri_MSFontService,sans-serif" font-style="normal" font-variant="normal" font-weight="400" font-stretch="normal" font-size="41" text-anchor="start" direction="ltr" writing-mode="lr-tb" unicode-bidi="normal" text-decoration="none" transform="matrix(1 0 0 1 871.454 2138)">20%</text></g><g clip-path="url(#clip8)"><text fill="#595959" fill-opacity="1" font-family="Calibri,Calibri_MSFontService,sans-serif" font-style="normal" font-variant="normal" font-weight="400" font-stretch="normal" font-size="41" text-anchor="start" direction="ltr" writing-mode="lr-tb" unicode-bidi="normal" text-decoration="none" transform="matrix(1 0 0 1 871.454 1941)">40%</text></g><g clip-path="url(#clip9)"><text fill="#595959" fill-opacity="1" font-family="Calibri,Calibri_MSFontService,sans-serif" font-style="normal" font-variant="normal" font-weight="400" font-stretch="normal" font-size="41" text-anchor="start" direction="ltr" writing-mode="lr-tb" unicode-bidi="normal" text-decoration="none" transform="matrix(1 0 0 1 871.454 1745)">60%</text></g><g clip-path="url(#clip10)"><text fill="#595959" fill-opacity="1" font-family="Calibri,Calibri_MSFontService,sans-serif" font-style="normal" font-variant="normal" font-weight="400" font-stretch="normal" font-size="41" text-anchor="start" direction="ltr" writing-mode="lr-tb" unicode-bidi="normal" text-decoration="none" transform="matrix(1 0 0 1 871.454 1549)">80%</text></g><g clip-path="url(#clip11)"><text fill="#595959" fill-opacity="1" font-family="Calibri,Calibri_MSFontService,sans-serif" font-style="normal" font-variant="normal" font-weight="400" font-stretch="normal" font-size="41" text-anchor="start" direction="ltr" writing-mode="lr-tb" unicode-bidi="normal" text-decoration="none" transform="matrix(1 0 0 1 850.554 1353)">100%</text></g><g clip-path="url(#clip12)"><text fill="#595959" fill-opacity="1" font-family="Calibri,Calibri_MSFontService,sans-serif" font-style="normal" font-variant="normal" font-weight="400" font-stretch="normal" font-size="41" text-anchor="start" direction="ltr" writing-mode="lr-tb" unicode-bidi="normal" text-decoration="none" transform="matrix(1 0 0 1 850.554 1157)">120%</text></g><g clip-path="url(#clip13)"><text fill="#595959" fill-opacity="1" font-family="Calibri,Calibri_MSFontService,sans-serif" font-style="normal" font-variant="normal" font-weight="400" font-stretch="normal" font-size="41" text-anchor="start" direction="ltr" writing-mode="lr-tb" unicode-bidi="normal" text-decoration="none" transform="matrix(1 0 0 1 1021.96 2389)">Lesst than 1000</text></g><g clip-path="url(#clip14)"><text fill="#595959" fill-opacity="1" font-family="Calibri,Calibri_MSFontService,sans-serif" font-style="normal" font-variant="normal" font-weight="400" font-stretch="normal" font-size="41" text-anchor="start" direction="ltr" writing-mode="lr-tb" unicode-bidi="normal" text-decoration="none" transform="matrix(1 0 0 1 1387.88 2389)">1000 to 4999</text></g><g clip-path="url(#clip15)"><text fill="#595959" fill-opacity="1" font-family="Calibri,Calibri_MSFontService,sans-serif" font-style="normal" font-variant="normal" font-weight="400" font-stretch="normal" font-size="41" text-anchor="start" direction="ltr" writing-mode="lr-tb" unicode-bidi="normal" text-decoration="none" transform="matrix(1 0 0 1 1732.93 2389)">5000 to 9999</text></g><g clip-path="url(#clip16)"><text fill="#595959" fill-opacity="1" font-family="Calibri,Calibri_MSFontService,sans-serif" font-style="normal" font-variant="normal" font-weight="400" font-stretch="normal" font-size="41" text-anchor="start" direction="ltr" writing-mode="lr-tb" unicode-bidi="normal" text-decoration="none" transform="matrix(1 0 0 1 2057.09 2389)">10000 to 14999</text></g><g clip-path="url(#clip17)"><text fill="#595959" fill-opacity="1" font-family="Calibri,Calibri_MSFontService,sans-serif" font-style="normal" font-variant="normal" font-weight="400" font-stretch="normal" font-size="41" text-anchor="start" direction="ltr" writing-mode="lr-tb" unicode-bidi="normal" text-decoration="none" transform="matrix(1 0 0 1 2402.14 2389)">15000 to 19999</text></g><g clip-path="url(#clip18)"><text fill="#595959" fill-opacity="1" font-family="Calibri,Calibri_MSFontService,sans-serif" font-style="normal" font-variant="normal" font-weight="400" font-stretch="normal" font-size="41" text-anchor="start" direction="ltr" writing-mode="lr-tb" unicode-bidi="normal" text-decoration="none" transform="matrix(1 0 0 1 2747.19 2389)">20000 to 24999</text></g><g clip-path="url(#clip19)"><text fill="#595959" fill-opacity="1" font-family="Calibri,Calibri_MSFontService,sans-serif" font-style="normal" font-variant="normal" font-weight="400" font-stretch="normal" font-size="41" text-anchor="start" direction="ltr" writing-mode="lr-tb" unicode-bidi="normal" text-decoration="none" transform="matrix(1 0 0 1 3092.24 2389)">25000 to 29999</text></g><g clip-path="url(#clip20)"><text fill="#595959" fill-opacity="1" font-family="Calibri,Calibri_MSFontService,sans-serif" font-style="normal" font-variant="normal" font-weight="400" font-stretch="normal" font-size="41" text-anchor="start" direction="ltr" writing-mode="lr-tb" unicode-bidi="normal" text-decoration="none" transform="matrix(1 0 0 1 3437.29 2389)">30000 to 34999</text></g><g clip-path="url(#clip21)"><text fill="#595959" fill-opacity="1" font-family="Calibri,Calibri_MSFontService,sans-serif" font-style="normal" font-variant="normal" font-weight="400" font-stretch="normal" font-size="41" text-anchor="start" direction="ltr" writing-mode="lr-tb" unicode-bidi="normal" text-decoration="none" transform="matrix(1 0 0 1 3782.34 2389)">35000 to 39999</text></g><g clip-path="url(#clip22)"><text fill="#595959" fill-opacity="1" font-family="Calibri,Calibri_MSFontService,sans-serif" font-style="normal" font-variant="normal" font-weight="400" font-stretch="normal" font-size="41" text-anchor="start" direction="ltr" writing-mode="lr-tb" unicode-bidi="normal" text-decoration="none" transform="matrix(1 0 0 1 4127.4 2389)">40000 to 44999</text></g><g clip-path="url(#clip23)"><text fill="#595959" fill-opacity="1" font-family="Calibri,Calibri_MSFontService,sans-serif" font-style="normal" font-variant="normal" font-weight="400" font-stretch="normal" font-size="41" text-anchor="start" direction="ltr" writing-mode="lr-tb" unicode-bidi="normal" text-decoration="none" transform="matrix(1 0 0 1 4472.45 2389)">45000 to 49999</text></g><g clip-path="url(#clip24)"><text fill="#595959" fill-opacity="1" font-family="Calibri,Calibri_MSFontService,sans-serif" font-style="normal" font-variant="normal" font-weight="400" font-stretch="normal" font-size="41" text-anchor="start" direction="ltr" writing-mode="lr-tb" unicode-bidi="normal" text-decoration="none" transform="matrix(1 0 0 1 4784.34 2389)">Greater than 50000</text></g><g clip-path="url(#clip25)"><text fill="#595959" fill-opacity="1" font-family="Calibri,Calibri_MSFontService,sans-serif" font-style="normal" font-variant="normal" font-weight="400" font-stretch="normal" font-size="64" text-anchor="start" direction="ltr" writing-mode="lr-tb" unicode-bidi="normal" text-decoration="none" transform="matrix(1 0 0 1 2701.12 1058)">Outcomes Based On Goal</text></g><g clip-path="url(#clip26)"><path d="M2314 2798 2402 2798" stroke="#5B9BD5" stroke-width="10.3125" stroke-linecap="round" stroke-linejoin="round" stroke-miterlimit="10" stroke-opacity="1" fill="none" fill-rule="evenodd"/></g><g clip-path="url(#clip27)"><text fill="#595959" fill-opacity="1" font-family="Calibri,Calibri_MSFontService,sans-serif" font-style="normal" font-variant="normal" font-weight="400" font-stretch="normal" font-size="41" text-anchor="start" direction="ltr" writing-mode="lr-tb" unicode-bidi="normal" text-decoration="none" transform="matrix(1 0 0 1 2411.31 2808)">Percentage Successful</text></g><g clip-path="url(#clip28)"><path d="M2861 2798 2949 2798" stroke="#70AD47" stroke-width="10.3125" stroke-linecap="round" stroke-linejoin="round" stroke-miterlimit="10" stroke-opacity="1" fill="none" fill-rule="evenodd"/></g><g clip-path="url(#clip29)"><text fill="#595959" fill-opacity="1" font-family="Calibri,Calibri_MSFontService,sans-serif" font-style="normal" font-variant="normal" font-weight="400" font-stretch="normal" font-size="41" text-anchor="start" direction="ltr" writing-mode="lr-tb" unicode-bidi="normal" text-decoration="none" transform="matrix(1 0 0 1 2958.65 2808)">Percentage Failed</text></g><g clip-path="url(#clip30)"><path d="M3337 2798 3425 2798" stroke="#264478" stroke-width="10.3125" stroke-linecap="round" stroke-linejoin="round" stroke-miterlimit="10" stroke-opacity="1" fill="none" fill-rule="evenodd"/></g><g clip-path="url(#clip31)"><text fill="#595959" fill-opacity="1" font-family="Calibri,Calibri_MSFontService,sans-serif" font-style="normal" font-variant="normal" font-weight="400" font-stretch="normal" font-size="41" text-anchor="start" direction="ltr" writing-mode="lr-tb" unicode-bidi="normal" text-decoration="none" transform="matrix(1 0 0 1 3433.81 2808)">Percentage Cnceled</text></g><rect x="820.5" y="963.5" width="4423" height="1902" stroke="#D9D9D9" stroke-width="3.4375" stroke-linecap="butt" stroke-linejoin="round" stroke-miterlimit="10" stroke-opacity="1" fill="none"/></g></svg>