<svg width="2695" height="1540" xmlns="http://www.w3.org/2000/svg" xmlns:xlink="http://www.w3.org/1999/xlink" overflow="hidden"><defs><clipPath id="clip0"><rect x="1805" y="114" width="2695" height="1540"/></clipPath><clipPath id="clip1"><rect x="1810" y="119" width="2686" height="1531"/></clipPath><clipPath id="clip2"><rect x="1810" y="119" width="2686" height="1531"/></clipPath><clipPath id="clip3"><rect x="1941" y="144" width="2167" height="1304"/></clipPath><clipPath id="clip4"><rect x="1810" y="119" width="2686" height="1531"/></clipPath><clipPath id="clip5"><rect x="1941" y="144" width="2167" height="1304"/></clipPath><clipPath id="clip6"><rect x="1810" y="119" width="2686" height="1531"/></clipPath><clipPath id="clip7"><rect x="1941" y="144" width="2167" height="1304"/></clipPath><clipPath id="clip8"><rect x="1810" y="119" width="2686" height="1531"/></clipPath><clipPath id="clip9"><rect x="1810" y="119" width="2686" height="1531"/></clipPath><clipPath id="clip10"><rect x="1810" y="119" width="2686" height="1531"/></clipPath><clipPath id="clip11"><rect x="1810" y="119" width="2686" height="1531"/></clipPath><clipPath id="clip12"><rect x="1810" y="119" width="2686" height="1531"/></clipPath><clipPath id="clip13"><rect x="1810" y="119" width="2686" height="1531"/></clipPath><clipPath id="clip14"><rect x="1810" y="119" width="2686" height="1531"/></clipPath><clipPath id="clip15"><rect x="1810" y="119" width="2686" height="1531"/></clipPath><clipPath id="clip16"><rect x="1810" y="119" width="2686" height="1531"/></clipPath><clipPath id="clip17"><rect x="1810" y="119" width="2686" height="1531"/></clipPath><clipPath id="clip18"><rect x="1810" y="119" width="2686" height="1531"/></clipPath><clipPath id="clip19"><rect x="1810" y="119" width="2686" height="1531"/></clipPath><clipPath id="clip20"><rect x="1810" y="119" width="2686" height="1531"/></clipPath><clipPath id="clip21"><rect x="1810" y="119" width="2686" height="1531"/></clipPath><clipPath id="clip22"><rect x="1810" y="119" width="2686" height="1531"/></clipPath><clipPath id="clip23"><rect x="1810" y="119" width="2686" height="1531"/></clipPath><clipPath id="clip24"><rect x="1810" y="119" width="2686" height="1531"/></clipPath><clipPath id="clip25"><rect x="1810" y="119" width="2686" height="1531"/></clipPath><clipPath id="clip26"><rect x="1810" y="119" width="2686" height="1531"/></clipPath><clipPath id="clip27"><rect x="1810" y="119" width="2686" height="1531"/></clipPath><clipPath id="clip28"><rect x="1810" y="119" width="2686" height="1531"/></clipPath><clipPath id="clip29"><rect x="1810" y="119" width="2686" height="1531"/></clipPath><clipPath id="clip30"><rect x="1810" y="119" width="2686" height="1531"/></clipPath><clipPath id="clip31"><rect x="1810" y="119" width="2686" height="1531"/></clipPath><clipPath id="clip32"><rect x="1810" y="119" width="2686" height="1531"/></clipPath><clipPath id="clip33"><rect x="1810" y="119" width="2686" height="1531"/></clipPath><clipPath id="clip34"><rect x="1810" y="119" width="2686" height="1531"/></clipPath><clipPath id="clip35"><rect x="1810" y="119" width="2686" height="1531"/></clipPath><clipPath id="clip36"><rect x="1810" y="119" width="2686" height="1531"/></clipPath><clipPath id="clip37"><rect x="1810" y="119" width="2686" height="1531"/></clipPath></defs><g clip-path="url(#clip0)" transform="translate(-1805 -114)"><rect x="1810" y="119" width="2686" height="1531" fill="#FFFFFF" fill-opacity="1"/><g clip-path="url(#clip1)"><path d="M1941.5 1228.54 4104.5 1228.54M1941.5 1011.53 4104.5 1011.53M1941.5 794.526 4104.5 794.526M1941.5 577.519 4104.5 577.519M1941.5 361.512 4104.5 361.512M1941.5 144.5 4104.5 144.5" stroke="#D9D9D9" stroke-width="3.4375" stroke-linecap="butt" stroke-linejoin="round" stroke-miterlimit="10" stroke-opacity="1" fill="none" fill-rule="nonzero"/></g><g clip-path="url(#clip2)"><path d="M1941.5 1444.5 4104.5 1444.5" stroke="#D9D9D9" stroke-width="3.4375" stroke-linecap="butt" stroke-linejoin="round" stroke-miterlimit="10" stroke-opacity="1" fill="none" fill-rule="evenodd"/></g><g clip-path="url(#clip3)"><path d="M2031 838.027 2212.07 675.022 2392.08 838.027 2572.08 675.022 2752.09 242 2933.1 361.012 3113.1 502.016 3293.11 665.022 3474.11 805.026 3654.12 740.024 3834.13 860.028 4015 1044" stroke="#4472C4" stroke-width="10.3125" stroke-linecap="round" stroke-linejoin="round" stroke-miterlimit="10" stroke-opacity="1" fill="none" fill-rule="nonzero"/></g><g clip-path="url(#clip4)"><path d="M2042.92 837.666C2042.92 843.741 2037.99 848.666 2031.92 848.666 2025.84 848.666 2020.92 843.741 2020.92 837.666 2020.92 831.591 2025.84 826.667 2031.92 826.667 2037.99 826.667 2042.92 831.591 2042.92 837.666Z" stroke="#4472C4" stroke-width="3.4375" stroke-linecap="butt" stroke-linejoin="round" stroke-miterlimit="10" stroke-opacity="1" fill="#4472C4" fill-rule="nonzero" fill-opacity="1"/><path d="M2222.92 675.666C2222.92 681.741 2217.99 686.666 2211.92 686.666 2205.84 686.666 2200.92 681.741 2200.92 675.666 2200.92 669.591 2205.84 664.667 2211.92 664.667 2217.99 664.667 2222.92 669.591 2222.92 675.666Z" stroke="#4472C4" stroke-width="3.4375" stroke-linecap="butt" stroke-linejoin="round" stroke-miterlimit="10" stroke-opacity="1" fill="#4472C4" fill-rule="nonzero" fill-opacity="1"/><path d="M2402.92 837.666C2402.92 843.741 2397.99 848.666 2391.92 848.666 2385.84 848.666 2380.92 843.741 2380.92 837.666 2380.92 831.591 2385.84 826.667 2391.92 826.667 2397.99 826.667 2402.92 831.591 2402.92 837.666Z" stroke="#4472C4" stroke-width="3.4375" stroke-linecap="butt" stroke-linejoin="round" stroke-miterlimit="10" stroke-opacity="1" fill="#4472C4" fill-rule="nonzero" fill-opacity="1"/><path d="M2583.92 675.666C2583.92 681.741 2578.99 686.666 2572.92 686.666 2566.84 686.666 2561.92 681.741 2561.92 675.666 2561.92 669.591 2566.84 664.667 2572.92 664.667 2578.99 664.667 2583.92 669.591 2583.92 675.666Z" stroke="#4472C4" stroke-width="3.4375" stroke-linecap="butt" stroke-linejoin="round" stroke-miterlimit="10" stroke-opacity="1" fill="#4472C4" fill-rule="nonzero" fill-opacity="1"/><path d="M2763.92 241.667C2763.92 247.741 2758.99 252.666 2752.92 252.666 2746.84 252.666 2741.92 247.741 2741.92 241.667 2741.92 235.592 2746.84 230.667 2752.92 230.667 2758.99 230.667 2763.92 235.592 2763.92 241.667Z" stroke="#4472C4" stroke-width="3.4375" stroke-linecap="butt" stroke-linejoin="round" stroke-miterlimit="10" stroke-opacity="1" fill="#4472C4" fill-rule="nonzero" fill-opacity="1"/><path d="M2943.92 361.667C2943.92 367.741 2938.99 372.666 2932.92 372.666 2926.84 372.666 2921.92 367.741 2921.92 361.667 2921.92 355.592 2926.84 350.667 2932.92 350.667 2938.99 350.667 2943.92 355.592 2943.92 361.667Z" stroke="#4472C4" stroke-width="3.4375" stroke-linecap="butt" stroke-linejoin="round" stroke-miterlimit="10" stroke-opacity="1" fill="#4472C4" fill-rule="nonzero" fill-opacity="1"/><path d="M3124.92 501.666C3124.92 507.741 3119.99 512.666 3113.92 512.666 3107.84 512.666 3102.92 507.741 3102.92 501.666 3102.92 495.591 3107.84 490.667 3113.92 490.667 3119.99 490.667 3124.92 495.591 3124.92 501.666Z" stroke="#4472C4" stroke-width="3.4375" stroke-linecap="butt" stroke-linejoin="round" stroke-miterlimit="10" stroke-opacity="1" fill="#4472C4" fill-rule="nonzero" fill-opacity="1"/><path d="M3304.92 664.666C3304.92 670.741 3299.99 675.666 3293.92 675.666 3287.84 675.666 3282.92 670.741 3282.92 664.666 3282.92 658.591 3287.84 653.667 3293.92 653.667 3299.99 653.667 3304.92 658.591 3304.92 664.666Z" stroke="#4472C4" stroke-width="3.4375" stroke-linecap="butt" stroke-linejoin="round" stroke-miterlimit="10" stroke-opacity="1" fill="#4472C4" fill-rule="nonzero" fill-opacity="1"/><path d="M3484.92 805.666C3484.92 811.741 3479.99 816.666 3473.92 816.666 3467.84 816.666 3462.92 811.741 3462.92 805.666 3462.92 799.591 3467.84 794.667 3473.92 794.667 3479.99 794.667 3484.92 799.591 3484.92 805.666Z" stroke="#4472C4" stroke-width="3.4375" stroke-linecap="butt" stroke-linejoin="round" stroke-miterlimit="10" stroke-opacity="1" fill="#4472C4" fill-rule="nonzero" fill-opacity="1"/><path d="M3664.92 740.666C3664.92 746.741 3659.99 751.666 3653.92 751.666 3647.84 751.666 3642.92 746.741 3642.92 740.666 3642.92 734.591 3647.84 729.667 3653.92 729.667 3659.99 729.667 3664.92 734.591 3664.92 740.666Z" stroke="#4472C4" stroke-width="3.4375" stroke-linecap="butt" stroke-linejoin="round" stroke-miterlimit="10" stroke-opacity="1" fill="#4472C4" fill-rule="nonzero" fill-opacity="1"/><path d="M3845.92 859.666C3845.92 865.741 3840.99 870.666 3834.92 870.666 3828.84 870.666 3823.92 865.741 3823.92 859.666 3823.92 853.591 3828.84 848.667 3834.92 848.667 3840.99 848.667 3845.92 853.591 3845.92 859.666Z" stroke="#4472C4" stroke-width="3.4375" stroke-linecap="butt" stroke-linejoin="round" stroke-miterlimit="10" stroke-opacity="1" fill="#4472C4" fill-rule="nonzero" fill-opacity="1"/><path d="M4025.92 1043.67C4025.92 1049.74 4020.99 1054.67 4014.92 1054.67 4008.84 1054.67 4003.92 1049.74 4003.92 1043.67 4003.92 1037.59 4008.84 1032.67 4014.92 1032.67 4020.99 1032.67 4025.92 1037.59 4025.92 1043.67Z" stroke="#4472C4" stroke-width="3.4375" stroke-linecap="butt" stroke-linejoin="round" stroke-miterlimit="10" stroke-opacity="1" fill="#4472C4" fill-rule="nonzero" fill-opacity="1"/></g><g clip-path="url(#clip5)"><path d="M2031 1087.04 2212.07 1022.03 2392.08 1087.04 2572.08 1011.03 2752.09 881 2933.1 914.03 3113.1 903.03 3293.11 935.031 3474.11 1076.04 3654.12 903.03 3834.13 1109 4015 1066.04" stroke="#ED7D31" stroke-width="10.3125" stroke-linecap="round" stroke-linejoin="round" stroke-miterlimit="10" stroke-opacity="1" fill="none" fill-rule="nonzero"/></g><g clip-path="url(#clip6)"><path d="M2042.92 1087.67C2042.92 1093.74 2037.99 1098.67 2031.92 1098.67 2025.84 1098.67 2020.92 1093.74 2020.92 1087.67 2020.92 1081.59 2025.84 1076.67 2031.92 1076.67 2037.99 1076.67 2042.92 1081.59 2042.92 1087.67Z" stroke="#ED7D31" stroke-width="3.4375" stroke-linecap="butt" stroke-linejoin="round" stroke-miterlimit="10" stroke-opacity="1" fill="#ED7D31" fill-rule="nonzero" fill-opacity="1"/><path d="M2222.92 1022.67C2222.92 1028.74 2217.99 1033.67 2211.92 1033.67 2205.84 1033.67 2200.92 1028.74 2200.92 1022.67 2200.92 1016.59 2205.84 1011.67 2211.92 1011.67 2217.99 1011.67 2222.92 1016.59 2222.92 1022.67Z" stroke="#ED7D31" stroke-width="3.4375" stroke-linecap="butt" stroke-linejoin="round" stroke-miterlimit="10" stroke-opacity="1" fill="#ED7D31" fill-rule="nonzero" fill-opacity="1"/><path d="M2402.92 1087.67C2402.92 1093.74 2397.99 1098.67 2391.92 1098.67 2385.84 1098.67 2380.92 1093.74 2380.92 1087.67 2380.92 1081.59 2385.84 1076.67 2391.92 1076.67 2397.99 1076.67 2402.92 1081.59 2402.92 1087.67Z" stroke="#ED7D31" stroke-width="3.4375" stroke-linecap="butt" stroke-linejoin="round" stroke-miterlimit="10" stroke-opacity="1" fill="#ED7D31" fill-rule="nonzero" fill-opacity="1"/><path d="M2583.92 1011.67C2583.92 1017.74 2578.99 1022.67 2572.92 1022.67 2566.84 1022.67 2561.92 1017.74 2561.92 1011.67 2561.92 1005.59 2566.84 1000.67 2572.92 1000.67 2578.99 1000.67 2583.92 1005.59 2583.92 1011.67Z" stroke="#ED7D31" stroke-width="3.4375" stroke-linecap="butt" stroke-linejoin="round" stroke-miterlimit="10" stroke-opacity="1" fill="#ED7D31" fill-rule="nonzero" fill-opacity="1"/><path d="M2763.92 881.666C2763.92 887.741 2758.99 892.666 2752.92 892.666 2746.84 892.666 2741.92 887.741 2741.92 881.666 2741.92 875.591 2746.84 870.667 2752.92 870.667 2758.99 870.667 2763.92 875.591 2763.92 881.666Z" stroke="#ED7D31" stroke-width="3.4375" stroke-linecap="butt" stroke-linejoin="round" stroke-miterlimit="10" stroke-opacity="1" fill="#ED7D31" fill-rule="nonzero" fill-opacity="1"/><path d="M2943.92 913.667C2943.92 919.742 2938.99 924.666 2932.92 924.666 2926.84 924.666 2921.92 919.742 2921.92 913.667 2921.92 907.592 2926.84 902.667 2932.92 902.667 2938.99 902.667 2943.92 907.592 2943.92 913.667Z" stroke="#ED7D31" stroke-width="3.4375" stroke-linecap="butt" stroke-linejoin="round" stroke-miterlimit="10" stroke-opacity="1" fill="#ED7D31" fill-rule="nonzero" fill-opacity="1"/><path d="M3124.92 902.667C3124.92 908.742 3119.99 913.666 3113.92 913.666 3107.84 913.666 3102.92 908.742 3102.92 902.667 3102.92 896.592 3107.84 891.667 3113.92 891.667 3119.99 891.667 3124.92 896.592 3124.92 902.667Z" stroke="#ED7D31" stroke-width="3.4375" stroke-linecap="butt" stroke-linejoin="round" stroke-miterlimit="10" stroke-opacity="1" fill="#ED7D31" fill-rule="nonzero" fill-opacity="1"/><path d="M3304.92 935.667C3304.92 941.742 3299.99 946.666 3293.92 946.666 3287.84 946.666 3282.92 941.742 3282.92 935.667 3282.92 929.592 3287.84 924.667 3293.92 924.667 3299.99 924.667 3304.92 929.592 3304.92 935.667Z" stroke="#ED7D31" stroke-width="3.4375" stroke-linecap="butt" stroke-linejoin="round" stroke-miterlimit="10" stroke-opacity="1" fill="#ED7D31" fill-rule="nonzero" fill-opacity="1"/><path d="M3484.92 1076.67C3484.92 1082.74 3479.99 1087.67 3473.92 1087.67 3467.84 1087.67 3462.92 1082.74 3462.92 1076.67 3462.92 1070.59 3467.84 1065.67 3473.92 1065.67 3479.99 1065.67 3484.92 1070.59 3484.92 1076.67Z" stroke="#ED7D31" stroke-width="3.4375" stroke-linecap="butt" stroke-linejoin="round" stroke-miterlimit="10" stroke-opacity="1" fill="#ED7D31" fill-rule="nonzero" fill-opacity="1"/><path d="M3664.92 902.667C3664.92 908.742 3659.99 913.666 3653.92 913.666 3647.84 913.666 3642.92 908.742 3642.92 902.667 3642.92 896.592 3647.84 891.667 3653.92 891.667 3659.99 891.667 3664.92 896.592 3664.92 902.667Z" stroke="#ED7D31" stroke-width="3.4375" stroke-linecap="butt" stroke-linejoin="round" stroke-miterlimit="10" stroke-opacity="1" fill="#ED7D31" fill-rule="nonzero" fill-opacity="1"/><path d="M3845.92 1108.67C3845.92 1114.74 3840.99 1119.67 3834.92 1119.67 3828.84 1119.67 3823.92 1114.74 3823.92 1108.67 3823.92 1102.59 3828.84 1097.67 3834.92 1097.67 3840.99 1097.67 3845.92 1102.59 3845.92 1108.67Z" stroke="#ED7D31" stroke-width="3.4375" stroke-linecap="butt" stroke-linejoin="round" stroke-miterlimit="10" stroke-opacity="1" fill="#ED7D31" fill-rule="nonzero" fill-opacity="1"/><path d="M4025.92 1065.67C4025.92 1071.74 4020.99 1076.67 4014.92 1076.67 4008.84 1076.67 4003.92 1071.74 4003.92 1065.67 4003.92 1059.59 4008.84 1054.67 4014.92 1054.67 4020.99 1054.67 4025.92 1059.59 4025.92 1065.67Z" stroke="#ED7D31" stroke-width="3.4375" stroke-linecap="butt" stroke-linejoin="round" stroke-miterlimit="10" stroke-opacity="1" fill="#ED7D31" fill-rule="nonzero" fill-opacity="1"/></g><g clip-path="url(#clip7)"><path d="M2031 1369 2212.07 1412.05 2392.08 1412.05 2572.08 1423.05 2752.09 1412.05 2933.1 1401.05 3113.1 1434 3293.11 1401.05 3474.11 1401.05M3834.13 1412.05 4015 1412.05" stroke="#A5A5A5" stroke-width="10.3125" stroke-linecap="round" stroke-linejoin="round" stroke-miterlimit="10" stroke-opacity="1" fill="none" fill-rule="nonzero"/></g><g clip-path="url(#clip8)"><path d="M2042.92 1369.67C2042.92 1375.74 2037.99 1380.67 2031.92 1380.67 2025.84 1380.67 2020.92 1375.74 2020.92 1369.67 2020.92 1363.59 2025.84 1358.67 2031.92 1358.67 2037.99 1358.67 2042.92 1363.59 2042.92 1369.67Z" stroke="#A5A5A5" stroke-width="3.4375" stroke-linecap="butt" stroke-linejoin="round" stroke-miterlimit="10" stroke-opacity="1" fill="#A5A5A5" fill-rule="nonzero" fill-opacity="1"/><path d="M2222.92 1412.67C2222.92 1418.74 2217.99 1423.67 2211.92 1423.67 2205.84 1423.67 2200.92 1418.74 2200.92 1412.67 2200.92 1406.59 2205.84 1401.67 2211.92 1401.67 2217.99 1401.67 2222.92 1406.59 2222.92 1412.67Z" stroke="#A5A5A5" stroke-width="3.4375" stroke-linecap="butt" stroke-linejoin="round" stroke-miterlimit="10" stroke-opacity="1" fill="#A5A5A5" fill-rule="nonzero" fill-opacity="1"/><path d="M2402.92 1412.67C2402.92 1418.74 2397.99 1423.67 2391.92 1423.67 2385.84 1423.67 2380.92 1418.74 2380.92 1412.67 2380.92 1406.59 2385.84 1401.67 2391.92 1401.67 2397.99 1401.67 2402.92 1406.59 2402.92 1412.67Z" stroke="#A5A5A5" stroke-width="3.4375" stroke-linecap="butt" stroke-linejoin="round" stroke-miterlimit="10" stroke-opacity="1" fill="#A5A5A5" fill-rule="nonzero" fill-opacity="1"/><path d="M2583.92 1423.67C2583.92 1429.74 2578.99 1434.67 2572.92 1434.67 2566.84 1434.67 2561.92 1429.74 2561.92 1423.67 2561.92 1417.59 2566.84 1412.67 2572.92 1412.67 2578.99 1412.67 2583.92 1417.59 2583.92 1423.67Z" stroke="#A5A5A5" stroke-width="3.4375" stroke-linecap="butt" stroke-linejoin="round" stroke-miterlimit="10" stroke-opacity="1" fill="#A5A5A5" fill-rule="nonzero" fill-opacity="1"/><path d="M2763.92 1412.67C2763.92 1418.74 2758.99 1423.67 2752.92 1423.67 2746.84 1423.67 2741.92 1418.74 2741.92 1412.67 2741.92 1406.59 2746.84 1401.67 2752.92 1401.67 2758.99 1401.67 2763.92 1406.59 2763.92 1412.67Z" stroke="#A5A5A5" stroke-width="3.4375" stroke-linecap="butt" stroke-linejoin="round" stroke-miterlimit="10" stroke-opacity="1" fill="#A5A5A5" fill-rule="nonzero" fill-opacity="1"/><path d="M2943.92 1401.67C2943.92 1407.74 2938.99 1412.67 2932.92 1412.67 2926.84 1412.67 2921.92 1407.74 2921.92 1401.67 2921.92 1395.59 2926.84 1390.67 2932.92 1390.67 2938.99 1390.67 2943.92 1395.59 2943.92 1401.67Z" stroke="#A5A5A5" stroke-width="3.4375" stroke-linecap="butt" stroke-linejoin="round" stroke-miterlimit="10" stroke-opacity="1" fill="#A5A5A5" fill-rule="nonzero" fill-opacity="1"/><path d="M3124.92 1434.67C3124.92 1440.74 3119.99 1445.67 3113.92 1445.67 3107.84 1445.67 3102.92 1440.74 3102.92 1434.67 3102.92 1428.59 3107.84 1423.67 3113.92 1423.67 3119.99 1423.67 3124.92 1428.59 3124.92 1434.67Z" stroke="#A5A5A5" stroke-width="3.4375" stroke-linecap="butt" stroke-linejoin="round" stroke-miterlimit="10" stroke-opacity="1" fill="#A5A5A5" fill-rule="nonzero" fill-opacity="1"/><path d="M3304.92 1401.67C3304.92 1407.74 3299.99 1412.67 3293.92 1412.67 3287.84 1412.67 3282.92 1407.74 3282.92 1401.67 3282.92 1395.59 3287.84 1390.67 3293.92 1390.67 3299.99 1390.67 3304.92 1395.59 3304.92 1401.67Z" stroke="#A5A5A5" stroke-width="3.4375" stroke-linecap="butt" stroke-linejoin="round" stroke-miterlimit="10" stroke-opacity="1" fill="#A5A5A5" fill-rule="nonzero" fill-opacity="1"/><path d="M3484.92 1401.67C3484.92 1407.74 3479.99 1412.67 3473.92 1412.67 3467.84 1412.67 3462.92 1407.74 3462.92 1401.67 3462.92 1395.59 3467.84 1390.67 3473.92 1390.67 3479.99 1390.67 3484.92 1395.59 3484.92 1401.67Z" stroke="#A5A5A5" stroke-width="3.4375" stroke-linecap="butt" stroke-linejoin="round" stroke-miterlimit="10" stroke-opacity="1" fill="#A5A5A5" fill-rule="nonzero" fill-opacity="1"/><path d="M3845.92 1412.67C3845.92 1418.74 3840.99 1423.67 3834.92 1423.67 3828.84 1423.67 3823.92 1418.74 3823.92 1412.67 3823.92 1406.59 3828.84 1401.67 3834.92 1401.67 3840.99 1401.67 3845.92 1406.59 3845.92 1412.67Z" stroke="#A5A5A5" stroke-width="3.4375" stroke-linecap="butt" stroke-linejoin="round" stroke-miterlimit="10" stroke-opacity="1" fill="#A5A5A5" fill-rule="nonzero" fill-opacity="1"/><path d="M4025.92 1412.67C4025.92 1418.74 4020.99 1423.67 4014.92 1423.67 4008.84 1423.67 4003.92 1418.74 4003.92 1412.67 4003.92 1406.59 4008.84 1401.67 4014.92 1401.67 4020.99 1401.67 4025.92 1406.59 4025.92 1412.67Z" stroke="#A5A5A5" stroke-width="3.4375" stroke-linecap="butt" stroke-linejoin="round" stroke-miterlimit="10" stroke-opacity="1" fill="#A5A5A5" fill-rule="nonzero" fill-opacity="1"/></g><g clip-path="url(#clip9)"><text fill="#595959" fill-opacity="1" font-family="Calibri,Calibri_MSFontService,sans-serif" font-style="normal" font-variant="normal" font-weight="400" font-stretch="normal" font-size="41" text-anchor="start" direction="ltr" writing-mode="lr-tb" unicode-bidi="normal" text-decoration="none" transform="matrix(1 0 0 1 1881.99 1455)">0</text></g><g clip-path="url(#clip10)"><text fill="#595959" fill-opacity="1" font-family="Calibri,Calibri_MSFontService,sans-serif" font-style="normal" font-variant="normal" font-weight="400" font-stretch="normal" font-size="41" text-anchor="start" direction="ltr" writing-mode="lr-tb" unicode-bidi="normal" text-decoration="none" transform="matrix(1 0 0 1 1861.09 1238)">20</text></g><g clip-path="url(#clip11)"><text fill="#595959" fill-opacity="1" font-family="Calibri,Calibri_MSFontService,sans-serif" font-style="normal" font-variant="normal" font-weight="400" font-stretch="normal" font-size="41" text-anchor="start" direction="ltr" writing-mode="lr-tb" unicode-bidi="normal" text-decoration="none" transform="matrix(1 0 0 1 1861.09 1021)">40</text></g><g clip-path="url(#clip12)"><text fill="#595959" fill-opacity="1" font-family="Calibri,Calibri_MSFontService,sans-serif" font-style="normal" font-variant="normal" font-weight="400" font-stretch="normal" font-size="41" text-anchor="start" direction="ltr" writing-mode="lr-tb" unicode-bidi="normal" text-decoration="none" transform="matrix(1 0 0 1 1861.09 805)">60</text></g><g clip-path="url(#clip13)"><text fill="#595959" fill-opacity="1" font-family="Calibri,Calibri_MSFontService,sans-serif" font-style="normal" font-variant="normal" font-weight="400" font-stretch="normal" font-size="41" text-anchor="start" direction="ltr" writing-mode="lr-tb" unicode-bidi="normal" text-decoration="none" transform="matrix(1 0 0 1 1861.09 588)">80</text></g><g clip-path="url(#clip14)"><text fill="#595959" fill-opacity="1" font-family="Calibri,Calibri_MSFontService,sans-serif" font-style="normal" font-variant="normal" font-weight="400" font-stretch="normal" font-size="41" text-anchor="start" direction="ltr" writing-mode="lr-tb" unicode-bidi="normal" text-decoration="none" transform="matrix(1 0 0 1 1840.19 371)">100</text></g><g clip-path="url(#clip15)"><text fill="#595959" fill-opacity="1" font-family="Calibri,Calibri_MSFontService,sans-serif" font-style="normal" font-variant="normal" font-weight="400" font-stretch="normal" font-size="41" text-anchor="start" direction="ltr" writing-mode="lr-tb" unicode-bidi="normal" text-decoration="none" transform="matrix(1 0 0 1 1840.19 154)">120</text></g><g clip-path="url(#clip16)"><text fill="#595959" fill-opacity="1" font-family="Calibri,Calibri_MSFontService,sans-serif" font-style="normal" font-variant="normal" font-weight="400" font-stretch="normal" font-size="41" text-anchor="start" direction="ltr" writing-mode="lr-tb" unicode-bidi="normal" text-decoration="none" transform="matrix(0.707107 -0.707107 0.707107 0.707107 1949.8 1590)">January</text></g><g clip-path="url(#clip17)"><text fill="#595959" fill-opacity="1" font-family="Calibri,Calibri_MSFontService,sans-serif" font-style="normal" font-variant="normal" font-weight="400" font-stretch="normal" font-size="41" text-anchor="start" direction="ltr" writing-mode="lr-tb" unicode-bidi="normal" text-decoration="none" transform="matrix(0.707107 -0.707107 0.707107 0.707107 2115.27 1605)">February</text></g><g clip-path="url(#clip18)"><text fill="#595959" fill-opacity="1" font-family="Calibri,Calibri_MSFontService,sans-serif" font-style="normal" font-variant="normal" font-weight="400" font-stretch="normal" font-size="41" text-anchor="start" direction="ltr" writing-mode="lr-tb" unicode-bidi="normal" text-decoration="none" transform="matrix(0.707107 -0.707107 0.707107 0.707107 2324.94 1575)">March</text></g><g clip-path="url(#clip19)"><text fill="#595959" fill-opacity="1" font-family="Calibri,Calibri_MSFontService,sans-serif" font-style="normal" font-variant="normal" font-weight="400" font-stretch="normal" font-size="41" text-anchor="start" direction="ltr" writing-mode="lr-tb" unicode-bidi="normal" text-decoration="none" transform="matrix(0.707107 -0.707107 0.707107 0.707107 2526.2 1554)">April</text></g><g clip-path="url(#clip20)"><text fill="#595959" fill-opacity="1" font-family="Calibri,Calibri_MSFontService,sans-serif" font-style="normal" font-variant="normal" font-weight="400" font-stretch="normal" font-size="41" text-anchor="start" direction="ltr" writing-mode="lr-tb" unicode-bidi="normal" text-decoration="none" transform="matrix(0.707107 -0.707107 0.707107 0.707107 2710.16 1551)">May</text></g><g clip-path="url(#clip21)"><text fill="#595959" fill-opacity="1" font-family="Calibri,Calibri_MSFontService,sans-serif" font-style="normal" font-variant="normal" font-weight="400" font-stretch="normal" font-size="41" text-anchor="start" direction="ltr" writing-mode="lr-tb" unicode-bidi="normal" text-decoration="none" transform="matrix(0.707107 -0.707107 0.707107 0.707107 2888.1 1553)">June</text></g><g clip-path="url(#clip22)"><text fill="#595959" fill-opacity="1" font-family="Calibri,Calibri_MSFontService,sans-serif" font-style="normal" font-variant="normal" font-weight="400" font-stretch="normal" font-size="41" text-anchor="start" direction="ltr" writing-mode="lr-tb" unicode-bidi="normal" text-decoration="none" transform="matrix(0.707107 -0.707107 0.707107 0.707107 3078.34 1543)">July</text></g><g clip-path="url(#clip23)"><text fill="#595959" fill-opacity="1" font-family="Calibri,Calibri_MSFontService,sans-serif" font-style="normal" font-variant="normal" font-weight="400" font-stretch="normal" font-size="41" text-anchor="start" direction="ltr" writing-mode="lr-tb" unicode-bidi="normal" text-decoration="none" transform="matrix(0.707107 -0.707107 0.707107 0.707107 3220.72 1581)">August</text></g><g clip-path="url(#clip24)"><text fill="#595959" fill-opacity="1" font-family="Calibri,Calibri_MSFontService,sans-serif" font-style="normal" font-variant="normal" font-weight="400" font-stretch="normal" font-size="41" text-anchor="start" direction="ltr" writing-mode="lr-tb" unicode-bidi="normal" text-decoration="none" transform="matrix(0.707107 -0.707107 0.707107 0.707107 3352.6 1630)">September</text></g><g clip-path="url(#clip25)"><text fill="#595959" fill-opacity="1" font-family="Calibri,Calibri_MSFontService,sans-serif" font-style="normal" font-variant="normal" font-weight="400" font-stretch="normal" font-size="41" text-anchor="start" direction="ltr" writing-mode="lr-tb" unicode-bidi="normal" text-decoration="none" transform="matrix(0.707107 -0.707107 0.707107 0.707107 3566.95 1595)">October</text></g><g clip-path="url(#clip26)"><text fill="#595959" fill-opacity="1" font-family="Calibri,Calibri_MSFontService,sans-serif" font-style="normal" font-variant="normal" font-weight="400" font-stretch="normal" font-size="41" text-anchor="start" direction="ltr" writing-mode="lr-tb" unicode-bidi="normal" text-decoration="none" transform="matrix(0.707107 -0.707107 0.707107 0.707107 3718.84 1624)">November</text></g><g clip-path="url(#clip27)"><text fill="#595959" fill-opacity="1" font-family="Calibri,Calibri_MSFontService,sans-serif" font-style="normal" font-variant="normal" font-weight="400" font-stretch="normal" font-size="41" text-anchor="start" direction="ltr" writing-mode="lr-tb" unicode-bidi="normal" text-decoration="none" transform="matrix(0.707107 -0.707107 0.707107 0.707107 3901.73 1621)">December</text></g><g clip-path="url(#clip28)"><text fill="#595959" fill-opacity="1" font-family="Calibri,Calibri_MSFontService,sans-serif" font-style="normal" font-variant="normal" font-weight="400" font-stretch="normal" font-size="64" text-anchor="start" direction="ltr" writing-mode="lr-tb" unicode-bidi="normal" text-decoration="none" transform="matrix(1 0 0 1 2704.61 215)">Theater Outcomes By Launch Date</text></g><g clip-path="url(#clip29)"><path d="M4176 809 4264 809" stroke="#4472C4" stroke-width="10.3125" stroke-linecap="round" stroke-linejoin="round" stroke-miterlimit="10" stroke-opacity="1" fill="none" fill-rule="evenodd"/></g><g clip-path="url(#clip30)"><path d="M4231 808C4231 814.075 4226.08 818.999 4220 818.999 4213.92 818.999 4209 814.075 4209 808 4209 801.925 4213.92 797 4220 797 4226.08 797 4231 801.925 4231 808Z" stroke="#4472C4" stroke-width="3.4375" stroke-linecap="butt" stroke-linejoin="round" stroke-miterlimit="10" stroke-opacity="1" fill="#4472C4" fill-rule="nonzero" fill-opacity="1"/></g><g clip-path="url(#clip31)"><text fill="#595959" fill-opacity="1" font-family="Calibri,Calibri_MSFontService,sans-serif" font-style="normal" font-variant="normal" font-weight="400" font-stretch="normal" font-size="41" text-anchor="start" direction="ltr" writing-mode="lr-tb" unicode-bidi="normal" text-decoration="none" transform="matrix(1 0 0 1 4273.75 819)">successful</text></g><g clip-path="url(#clip32)"><path d="M4176 886 4264 886" stroke="#ED7D31" stroke-width="10.3125" stroke-linecap="round" stroke-linejoin="round" stroke-miterlimit="10" stroke-opacity="1" fill="none" fill-rule="evenodd"/></g><g clip-path="url(#clip33)"><path d="M4231 886C4231 892.075 4226.08 896.999 4220 896.999 4213.92 896.999 4209 892.075 4209 886 4209 879.925 4213.92 875 4220 875 4226.08 875 4231 879.925 4231 886Z" stroke="#ED7D31" stroke-width="3.4375" stroke-linecap="butt" stroke-linejoin="round" stroke-miterlimit="10" stroke-opacity="1" fill="#ED7D31" fill-rule="nonzero" fill-opacity="1"/></g><g clip-path="url(#clip34)"><text fill="#595959" fill-opacity="1" font-family="Calibri,Calibri_MSFontService,sans-serif" font-style="normal" font-variant="normal" font-weight="400" font-stretch="normal" font-size="41" text-anchor="start" direction="ltr" writing-mode="lr-tb" unicode-bidi="normal" text-decoration="none" transform="matrix(1 0 0 1 4273.75 896)">failed</text></g><g clip-path="url(#clip35)"><path d="M4176 964 4264 964" stroke="#A5A5A5" stroke-width="10.3125" stroke-linecap="round" stroke-linejoin="round" stroke-miterlimit="10" stroke-opacity="1" fill="none" fill-rule="evenodd"/></g><g clip-path="url(#clip36)"><path d="M4231 963C4231 969.075 4226.08 973.999 4220 973.999 4213.92 973.999 4209 969.075 4209 963 4209 956.925 4213.92 952 4220 952 4226.08 952 4231 956.925 4231 963Z" stroke="#A5A5A5" stroke-width="3.4375" stroke-linecap="butt" stroke-linejoin="round" stroke-miterlimit="10" stroke-opacity="1" fill="#A5A5A5" fill-rule="nonzero" fill-opacity="1"/></g><g clip-path="url(#clip37)"><text fill="#595959" fill-opacity="1" font-family="Calibri,Calibri_MSFontService,sans-serif" font-style="normal" font-variant="normal" font-weight="400" font-stretch="normal" font-size="41" text-anchor="start" direction="ltr" writing-mode="lr-tb" unicode-bidi="normal" text-decoration="none" transform="matrix(1 0 0 1 4273.75 974)">canceled</text></g><rect x="1810.5" y="119.5" width="2686" height="1531" stroke="#D9D9D9" stroke-width="3.4375" stroke-linecap="butt" stroke-linejoin="round" stroke-miterlimit="10" stroke-opacity="1" fill="none"/></g></svg>